<?xml version="1.0" encoding="iso-8859-1"?>
<!-- Uploaded to: SVG Repo, www.svgrepo.com, Generator: SVG Repo Mixer Tools -->
<svg fill="#000000" height="800px" width="800px" version="1.1" id="Layer_1" xmlns="http://www.w3.org/2000/svg" xmlns:xlink="http://www.w3.org/1999/xlink" 
	 viewBox="0 0 512 512" xml:space="preserve">
<g>
	<g>
		<path d="M389.565,66.783h-39.768l21.31-42.621c2.588-5.175,2.311-11.322-0.731-16.244C367.334,2.995,361.961,0,356.174,0h-66.783
			c-6.324,0-12.104,3.573-14.934,9.229L256,46.146L237.542,9.229C234.713,3.573,228.933,0,222.609,0h-66.783
			c-5.787,0-11.161,2.995-14.202,7.918c-3.042,4.922-3.318,11.068-0.731,16.244l21.31,42.621h-39.768
			c-27.618,0-50.087,22.469-50.087,50.087v345.043c0,27.618,22.469,50.087,50.087,50.087h267.13
			c27.618,0,50.087-22.469,50.087-50.087V116.87C439.652,89.252,417.183,66.783,389.565,66.783z M299.71,33.391h29.45
			l-16.696,33.391h-29.45L299.71,33.391z M212.29,33.391l50.087,100.174h-29.45L182.84,33.391H212.29z M105.739,378.435h66.783
			v33.391h-66.783V378.435z M406.261,461.913c0,9.206-7.49,16.696-16.696,16.696h-267.13c-9.206,0-16.696-7.49-16.696-16.696
			v-16.696h300.522V461.913z M205.913,411.826v-33.391h66.783v33.391H205.913z M306.087,411.826v-33.391h33.391v33.391H306.087z
			 M406.261,411.826H372.87v-33.391h33.391V411.826z M406.261,345.043H105.739V116.87c0-9.206,7.49-16.696,16.696-16.696h55.763
			c0.23,0,0.455-0.026,0.683-0.035l16.712,33.426h-39.768c-9.22,0-16.696,7.475-16.696,16.696s7.475,16.696,16.696,16.696
			c7.804,0,195.238,0,200.348,0c9.22,0,16.696-7.475,16.696-16.696s-7.475-16.696-16.696-16.696H299.71l-16.696-33.391
			c11.768,0,95.949,0,106.551,0c9.206,0,16.696,7.49,16.696,16.696V345.043z"/>
	</g>
</g>
<g>
	<g>
		<path d="M367.977,272.306l-66.779-66.78c-6.52-6.52-17.091-6.52-23.611,0L256,227.112l-21.586-21.586
			c-6.52-6.52-17.097-6.513-23.618,0.007c-73.063,73.063-69.787,68.524-71.236,74.861c-2.387,10.479,5.586,20.128,16.266,20.128
			h203.381c4.404-0.808,8.391-3.356,10.976-7.343C374.741,286.137,373.12,277.254,367.977,272.306z M215.693,267.13h-19.561
			l26.476-26.476l9.78,9.78L215.693,267.13z M262.916,267.13l26.475-26.476l26.476,26.476H262.916z"/>
	</g>
</g>
</svg>